<svg xmlns="http://www.w3.org/2000/svg" viewBox="0 4.199999809265137 266.20001220703125 48.29999923706055" data-asc="0.75" width="266.20001220703125" height="48.29999923706055">  <defs>
    <!-- Gradient definition -->
    <linearGradient id="text-gradient" x1="0%" y1="0%" x2="100%" y2="100%">
      <stop offset="0%" stop-color="rgb(245, 158, 11)" />
      <stop offset="100%" stop-color="rgb(56, 189, 248)" />
    </linearGradient>
  </defs><g fill="url(#text-gradient)"><g transform="translate(0, 0)"><path d="M18.45 38.70L18.10 38.75Q17.85 38.80 17.78 38.77Q17.70 38.75 17.30 38.75Q17.25 38.75 17 38.80Q16.75 38.85 16.45 38.90Q16.15 38.95 15.80 38.92Q15.45 38.90 15.25 38.80Q15 38.80 14.90 38.75Q14.80 38.70 14.55 38.70Q14.30 38.50 14.28 38.10Q14.25 37.70 14.25 37.45L14.25 36.20L13.85 36.75L12.95 37.60Q12.45 37.95 12.13 38.17Q11.80 38.40 11.35 38.65Q10.60 39.10 9.73 39.25Q8.85 39.40 8.10 39.40Q7.35 39.40 6.53 39.10Q5.70 38.80 5.05 38.55Q4.85 38.50 4.68 38.38Q4.50 38.25 4.35 38.15Q4.05 37.90 3.68 37.65Q3.30 37.40 3.05 37.15Q2.90 37.05 2.78 36.92Q2.65 36.80 2.45 36.70Q2.20 36.55 2 36.20Q1.75 35.65 1.38 35.13Q1 34.60 0.75 33.90Q0.60 33.35 0.35 32.85Q0.10 32.35 0.10 31.90Q0.10 31.65 0.05 31.05Q0 30.45 0 30.20Q0 29.75 0.03 29.50Q0.05 29.25 0.05 28.75Q0.05 28.50 0.13 28.23Q0.20 27.95 0.30 27.50Q0.40 26.95 0.45 26.32Q0.50 25.70 0.60 25.30Q0.95 24.65 1.08 24.50Q1.20 24.35 1.30 23.95Q1.40 23.65 1.58 23.17Q1.75 22.70 2.10 22.45Q2.25 22.35 2.55 22.10Q2.85 21.85 3.17 21.55Q3.50 21.25 3.75 21.02Q4 20.80 4.10 20.80L5 20.40Q5.40 20.25 5.90 20.18Q6.40 20.10 6.85 20.10L8.40 20.05Q8.65 20.05 8.98 20.05Q9.30 20.05 9.40 20.10Q9.65 20.10 9.90 20.25Q10.15 20.40 10.40 20.40Q10.65 20.40 11.03 20.57Q11.40 20.75 11.65 21Q12.15 21.20 12.43 21.47Q12.70 21.75 12.95 22Q13.20 22.25 13.43 22.48Q13.65 22.70 13.90 22.95Q13.90 23.10 14.10 23.20Q14.20 23.25 14.25 23.30Q14.35 23.20 14.38 22.90Q14.40 22.60 14.55 22.35Q14.60 21.65 14.63 21.07Q14.65 20.50 14.70 20.30Q14.65 20.10 14.75 19.72Q14.85 19.35 15.10 19.45Q15.20 19.40 15.55 19.45Q15.90 19.50 16.35 19.57Q16.80 19.65 17.28 19.70Q17.75 19.75 18.10 19.75Q18.15 19.75 18.15 20Q18.15 20.25 18.10 20.40L18.40 25.20L18.40 30.60Q18.40 30.75 18.38 30.90Q18.35 31.05 18.35 31.20Q18.40 31.65 18.40 32.13Q18.40 32.60 18.40 33.10Q18.45 33.45 18.43 33.83Q18.40 34.20 18.40 34.60Q18.40 34.90 18.43 35.42Q18.45 35.95 18.45 36.50Q18.45 37.05 18.45 37.58Q18.45 38.10 18.45 38.45L18.45 38.70M12 31.15L12 31Q12 30.70 12.10 29.68Q12.20 28.65 11.65 27.15Q11.50 26.75 11.20 26.30Q10.90 25.85 10.25 25.60Q9.90 25.50 9.60 25.38Q9.30 25.25 8.95 25.30Q8.60 25.40 8.08 25.75Q7.55 26.10 7.20 26.60Q6.95 26.85 6.90 27.15Q6.85 27.45 6.80 27.85Q6.65 28.50 6.58 28.85Q6.50 29.20 6.50 29.75Q6.50 30.75 7.08 31.50Q7.65 32.25 7.80 32.50Q7.95 32.65 8.08 32.67Q8.20 32.70 8.45 32.95Q8.95 33.20 9.40 33.02Q9.85 32.85 10.40 32.60L10.70 32.60Q11.15 32.35 11.45 32.10Q11.75 31.85 12 31.35L12 31.15ZM27.05 21.10Q27.05 21 27.20 20.85Q27.25 20.80 27.35 20.80Q28.35 19.85 29.35 19.32Q30.35 18.80 31.55 18.55Q33 18 34.40 18.55Q34.95 18.55 35.25 18.72Q35.55 18.90 36.05 18.90Q37.25 19.15 38.05 19.80Q38.85 20.45 39.60 21.40Q40.55 22.65 40.95 23.90Q41.35 25.15 41.85 26.60L41.85 28.85Q41.60 29.85 41.53 30.60Q41.45 31.35 41.20 32.05Q40.95 32.80 40.48 33.48Q40 34.15 39.25 34.65Q38.20 35.70 36.70 36.25Q35.70 36.75 34.90 37.02Q34.10 37.30 33.15 37.50L27.70 37.50L27.70 38.85Q27.70 40.05 27.65 41.25Q27.60 42.45 27.35 43.70L27.35 51.55Q27.35 52.50 26.35 52.50L23.50 52.50Q23.25 50.75 23.20 49.17Q23.15 47.60 23.15 45.90L23.15 36.25Q23.05 35.05 23.05 33.98Q23.05 32.90 23.07 31.85Q23.10 30.80 23.13 29.73Q23.15 28.65 23.05 27.45L23.05 26.40Q23.05 26.05 23.10 25.60Q23.10 24.85 23.10 24.32Q23.10 23.80 23.10 23.30Q23.10 22.80 23.15 22.25Q23.20 21.70 23.30 21Q23.30 20.75 23.35 20.20Q23.40 19.65 23.30 19.30Q23.30 18.95 23.32 18.75Q23.35 18.55 23.38 18.47Q23.40 18.40 23.45 18.35Q23.50 18.30 23.55 18.20Q23.80 18.15 24.40 18.30Q25 18.45 25.45 18.50Q25.75 18.45 26.18 18.45Q26.60 18.45 27.05 18.55L27.05 21.10M35.90 27.35Q35.85 26.50 35.75 25.80Q35.65 25.10 35.40 24.35Q35.40 24.30 35.35 24.20Q35.25 24 35.10 24Q34.55 23.55 33.73 23.38Q32.90 23.20 32.20 23.70Q31.45 24.40 31 25.32Q30.55 26.25 30.55 27.25L30.55 28.85Q30.55 29.30 30.75 29.95Q30.95 30.60 31.20 31.10Q31.20 31.35 31.43 31.43Q31.65 31.50 31.90 31.75Q32.85 32 33.88 31.68Q34.90 31.35 35.40 30.15Q35.65 29.45 35.70 28.82Q35.75 28.20 35.90 27.35ZM45.20 31.10Q45.20 30.75 45.23 30.05Q45.25 29.35 45.20 28.70Q45.25 28.25 45.25 27.80Q45.25 27.35 45.25 26.85L45.10 22.80L45.10 20.55Q45.65 20.55 46.25 20.52Q46.85 20.50 47.60 20.60Q47.80 20.65 48 20.65L48.70 20.65Q49.05 20.75 49.05 20.72Q49.05 20.70 49.20 20.80Q49.20 21.05 49.15 21.18Q49.10 21.30 49.10 21.55L49.10 23.15Q49.30 22.90 49.38 22.73Q49.45 22.55 49.70 22.30L50 22.20Q50.65 21.55 51.60 21.35Q52.55 21.15 53.50 21.25Q53.70 21.25 54.15 21.43Q54.60 21.60 55.05 21.85Q55.40 21.90 55.65 22.05L55.80 22.20Q56.30 22.65 56.75 22.98Q57.20 23.30 57.40 23.80Q57.90 24.50 58.20 25.30Q58.50 26.10 58.75 27.05Q58.75 27.30 58.70 27.50Q58.65 27.70 58.40 27.70Q57.65 27.95 57.03 27.92Q56.40 27.90 55.35 28L54.80 28Q54.70 27.95 54.68 27.85Q54.65 27.75 54.65 27.70Q54.60 27.40 54.53 27.17Q54.45 26.95 54.45 26.80Q54.45 26.70 54.40 26.55Q54.35 26.40 54.30 26.30Q54.20 26.15 54.15 26.05Q53.20 25.10 52.30 25.10Q52.20 25.10 52.03 25.10Q51.85 25.10 51.70 25.20Q51.45 25.30 50.98 25.52Q50.50 25.75 50.35 25.90Q50.10 26.15 49.83 26.42Q49.55 26.70 49.40 27.05Q49.35 27.25 49.33 27.73Q49.30 28.20 49.30 28.30Q49.20 28.75 49.10 29.50Q49 30.25 49 30.80Q49 31.15 48.93 31.70Q48.85 32.25 48.85 32.70Q48.85 33.05 48.83 33.35Q48.80 33.65 48.80 33.95L48.80 35.85Q48.80 36.15 48.78 36.50Q48.75 36.85 48.75 37.20L48.75 38.30Q46.25 38.85 45.30 38.30Q45.20 37.95 45.15 37.42Q45.10 36.90 45.15 36.80Q45.25 35.90 45.20 35Q45.15 34.10 45.15 33.15Q45.10 32.65 45.15 32.10Q45.20 31.55 45.20 31.10ZM76.65 27.90Q76.65 28.15 76.40 28.40Q76.25 28.55 75.95 28.60Q75.65 28.65 75.40 28.65Q75.05 28.75 74.55 28.75Q74.05 28.75 73.70 28.75Q73 28.75 72.65 28.77Q72.30 28.80 71.50 28.90L68.50 29.15L68.50 29.75Q68.50 30.30 68.65 30.82Q68.80 31.35 69.20 31.90Q69.45 32.30 69.80 32.65Q70.15 33 70.50 33.10Q70.80 33.20 71.05 33.30Q71.30 33.40 71.53 33.48Q71.75 33.55 71.95 33.50Q73.30 33.50 73.92 33.20Q74.55 32.90 75.45 32.45Q75.65 32.45 75.88 32.25Q76.10 32.05 76.20 32Q76.45 31.90 76.92 31.50Q77.40 31.10 77.65 31Q77.80 31.10 77.75 31.68Q77.70 32.25 77.80 32.75L77.80 33.30L77.80 34.30Q77.55 34.60 77.42 34.73Q77.30 34.85 77.22 34.95Q77.15 35.05 77 35.20Q76.85 35.35 76.55 35.65Q75.65 36.55 74.65 36.85Q74.10 37.15 73.45 37.27Q72.80 37.40 72.40 37.55Q72.15 37.60 71.95 37.63Q71.75 37.65 71.55 37.65L71.15 37.65Q70.20 37.65 69.30 37.63Q68.40 37.60 67.40 37.10Q67.05 37.15 66.42 36.90Q65.80 36.65 65.60 36.40Q65.05 36.10 64.63 35.65Q64.20 35.20 63.70 34.85Q63 34.35 62.70 33.80Q62.40 33.25 62.15 32.65Q61.90 32.20 61.70 31.65Q61.50 31.10 61.30 30.55Q61.30 30 61.27 29.50Q61.25 29 61.25 28.50L61.25 26.65Q61.25 25.75 61.63 24.50Q62 23.25 62.55 22.35Q62.70 22.15 62.90 21.95Q63.05 21.75 63.27 21.55Q63.50 21.35 63.75 21.10Q63.90 21.05 64.08 20.95Q64.25 20.85 64.60 20.65Q64.75 20.55 64.97 20.30Q65.20 20.05 65.60 19.95Q66.15 19.75 66.65 19.52Q67.15 19.30 67.40 19.30Q67.75 19.30 68.67 19.35Q69.60 19.40 70.45 19.45Q70.90 19.50 71.20 19.60Q71.50 19.70 71.65 19.70Q72.05 19.75 72.33 19.80Q72.60 19.85 72.90 19.95Q73.80 20.25 74.22 20.57Q74.65 20.90 74.95 21.25Q75.15 21.50 75.33 21.82Q75.50 22.15 75.70 22.40Q75.95 22.70 76.17 23.23Q76.40 23.75 76.50 24.25Q76.60 24.65 76.65 25.30Q76.70 25.95 76.70 26.45Q76.70 26.95 76.67 27.20Q76.65 27.45 76.65 27.90M72.35 25Q72.35 24.90 72.35 24.63Q72.35 24.35 72.25 24.25Q71.85 23.60 71.13 23.48Q70.40 23.35 69.85 23.45Q69.50 23.55 69.40 23.70Q69.30 23.85 69.10 24.15Q69 24.25 68.95 24.35Q68.90 24.45 68.80 24.55Q68.70 24.65 68.67 24.82Q68.65 25 68.60 25.15Q68.50 25.40 68.50 25.50Q68.50 25.60 68.60 26Q68.80 26.10 69.38 26.17Q69.95 26.25 70.58 26.25Q71.20 26.25 71.78 26.17Q72.35 26.10 72.55 26Q72.60 25.95 72.47 25.73Q72.35 25.50 72.35 25ZM81.95 20.45Q81.95 20.30 81.90 20.15Q81.85 20 81.90 19.85Q81.95 19.85 82.07 19.82Q82.20 19.80 82.30 19.80L82.60 19.80Q82.85 19.75 83.10 19.77Q83.35 19.80 83.60 19.75L85.10 19.75Q85.20 19.75 85.30 19.85Q85.40 19.95 85.45 20L85.55 20.45Q85.55 20.60 85.60 20.80Q85.70 21.20 85.70 21.65Q85.75 21.80 85.75 21.95Q85.75 22.25 85.80 22.25Q86 22.05 86.10 21.82Q86.20 21.60 86.35 21.50Q86.50 21.35 86.57 21.30Q86.65 21.25 86.72 21.20Q86.80 21.15 86.95 21.07Q87.10 21 87.40 20.80Q87.85 20.55 88.22 20.40Q88.60 20.25 89.40 19.85Q89.55 19.80 89.92 19.70Q90.30 19.60 90.75 19.52Q91.20 19.45 91.67 19.43Q92.15 19.40 92.50 19.40Q93.05 19.45 93.40 19.52Q93.75 19.60 94.35 19.70Q94.60 19.75 95.17 19.80Q95.75 19.85 95.95 19.95Q97.20 20.65 97.95 21.15Q98.70 21.65 99.25 22.50Q99.35 22.60 99.55 22.73Q99.75 22.85 100 23.10Q100.25 23.35 100.47 23.77Q100.70 24.20 100.70 24.30Q100.90 25.15 101.15 25.67Q101.40 26.20 101.45 27.05Q101.50 27.45 101.70 27.92Q101.90 28.40 101.90 28.90Q101.90 29.40 101.95 30.02Q102 30.65 101.90 31.80Q101.90 32.15 101.92 32.45Q101.95 32.75 101.95 33.05L101.95 35.35Q101.95 35.70 101.95 36Q101.95 36.30 101.90 36.60Q101.90 37 101.92 37.30Q101.95 37.60 101.95 38Q101.95 38.10 101.95 38.23Q101.95 38.35 101.85 38.40Q101.75 38.45 101.57 38.45Q101.40 38.45 101.30 38.45Q100.85 38.45 100.45 38.48Q100.05 38.50 99.60 38.45L98.10 38.30Q97.90 38.25 97.55 38.30Q97.20 38.35 97.10 38.15Q97.05 37 97.07 36.52Q97.10 36.05 97.10 35.65Q97.10 35.40 97.05 35.02Q97 34.65 96.95 34L97.10 31.35Q97.10 30.85 97.07 30.57Q97.05 30.30 97.02 30.13Q97 29.95 96.97 29.70Q96.95 29.45 96.95 28.90Q96.95 28 96.63 27.10Q96.30 26.20 95.85 25.30Q95.60 24.80 95.20 24.40Q94.80 24 94.15 23.70Q94.05 23.65 93.90 23.60Q93.75 23.55 93.65 23.55L92.50 23.45Q91.65 23.40 90.75 23.75Q89.85 24.10 89.65 24.45Q89.30 25.05 89.10 25.35Q88.90 25.65 88.70 25.95Q88.65 26.10 88.55 26.48Q88.45 26.85 88.32 27.38Q88.20 27.90 88.10 28.48Q88 29.05 88 29.50Q88 29.85 88 30.18Q88 30.50 87.95 30.80L87.85 32.20L87.55 34.10Q87.55 34.60 87.55 35.17Q87.55 35.75 87.50 36.25L87.50 37.40Q87.20 37.60 87 37.60Q86.45 37.70 86.22 37.80Q86 37.90 85.40 37.85Q84.85 37.80 83.95 37.88Q83.05 37.95 82.50 37.85Q81.95 37.75 81.95 37.73Q81.95 37.70 81.95 37.45Q81.95 37.25 81.97 36.83Q82 36.40 82 35.92Q82 35.45 82.02 35Q82.05 34.55 82.05 34.30Q82.05 33.40 82 32.80Q81.95 32.20 81.95 31.30Q81.95 30.55 81.92 30.07Q81.90 29.60 81.85 28.85Q81.85 28.45 81.90 27.82Q81.95 27.20 81.95 26.50Q81.95 25.65 81.92 24.85Q81.90 24.05 81.90 23.65Q81.85 22.80 81.85 22.02Q81.85 21.25 81.95 20.45ZM120.50 19.95Q120.55 18.75 120.70 17.13Q120.85 15.50 121 14.30Q120.90 13.55 121 12.77Q121.10 12 121.05 11.25Q121.05 10.95 121.08 10.63Q121.10 10.30 121.10 10Q121.35 8.80 121.35 7.55Q121.35 6.30 121.60 4.80L121.60 4.20Q122.60 4.45 123.47 4.63Q124.35 4.80 125.30 4.80Q125.05 5.55 125 6.30Q124.95 7.05 124.95 7.75Q124.95 9.20 124.83 10.63Q124.70 12.05 124.70 13.50Q124.70 13.80 124.65 14.13Q124.60 14.45 124.60 14.75Q124.65 15.15 124.63 15.75Q124.60 16.35 124.60 17Q124.60 17.65 124.63 18.25Q124.65 18.85 124.75 19.25Q124.60 20.45 124.67 21.67Q124.75 22.90 124.70 24.10Q124.60 24.95 124.65 25.73Q124.70 26.50 124.70 27.35Q124.70 28.20 124.72 29.05Q124.75 29.90 124.75 30.75Q124.75 31.60 124.60 32.77Q124.45 33.95 124.50 34.80Q124.50 36 124.42 36.90Q124.35 37.80 124.35 38.80Q124.35 39.25 124.10 39.38Q123.85 39.50 123.30 39.50Q122.60 39.60 122.05 39.55Q121.50 39.50 120.80 39.50Q120.30 39.50 120.22 39.30Q120.15 39.10 120.15 38.90L120.15 38Q120.10 37.95 120.05 37.85Q120 37.75 119.95 37.73Q119.90 37.70 119.85 37.65Q119.60 37.90 119.15 38Q118.70 38.10 118.25 38.35Q117.50 38.85 116.58 39.05Q115.65 39.25 114.65 39.25Q113.95 39.25 113.42 39.23Q112.90 39.20 112.45 39Q112.20 39 112.13 38.83Q112.05 38.65 111.80 38.65Q110.80 38.15 110.05 37.63Q109.30 37.10 108.60 36.40Q107.85 35.65 107.47 34.90Q107.10 34.15 106.60 33.15Q106.40 32.45 106.33 31.73Q106.25 31 106 30.30Q106 29.30 106.08 28.38Q106.15 27.45 106.60 26.75Q106.85 25.50 107.55 24.55Q108.25 23.60 109.20 22.90Q109.70 22.40 110.38 22.10Q111.05 21.80 111.80 21.55Q112.30 21.55 112.92 21.52Q113.55 21.50 114.05 21.25Q114.75 21.25 115.33 21.27Q115.90 21.30 116.65 21.55Q116.85 21.80 117.25 21.90Q117.65 22 117.90 22.25Q118.35 22.50 118.85 22.73Q119.35 22.95 119.85 23.15Q120.10 22.95 120.10 22.52Q120.10 22.10 120.35 21.55Q120.35 21.30 120.42 20.90Q120.50 20.50 120.50 19.95M114.65 26.10Q113.70 26.60 113.22 27.63Q112.75 28.65 112.75 29.60Q112.75 30.15 112.90 30.45Q113.05 30.75 113.05 31.20Q113.05 31.95 113.50 32.45Q113.95 32.95 114.65 33.50Q115.25 34 116.30 33.50Q116.75 32.95 117.33 32.42Q117.90 31.90 117.90 30.95Q118.15 29.95 118 29.20Q117.85 28.45 117.60 27.70Q117.35 27 116.70 26.55Q116.05 26.10 115.30 26.10L114.65 26.10ZM143.70 27.90Q143.70 28.15 143.45 28.40Q143.30 28.55 143 28.60Q142.70 28.65 142.45 28.65Q142.10 28.75 141.60 28.75Q141.10 28.75 140.75 28.75Q140.05 28.75 139.70 28.77Q139.35 28.80 138.55 28.90L135.55 29.15L135.55 29.75Q135.55 30.30 135.70 30.82Q135.85 31.35 136.25 31.90Q136.50 32.30 136.85 32.65Q137.20 33 137.55 33.10Q137.85 33.20 138.10 33.30Q138.35 33.40 138.57 33.48Q138.80 33.55 139 33.50Q140.35 33.50 140.97 33.20Q141.60 32.90 142.50 32.45Q142.70 32.45 142.93 32.25Q143.15 32.05 143.25 32Q143.50 31.90 143.97 31.50Q144.45 31.10 144.70 31Q144.85 31.10 144.80 31.68Q144.75 32.25 144.85 32.75L144.85 33.30L144.85 34.30Q144.60 34.60 144.47 34.73Q144.35 34.85 144.28 34.95Q144.20 35.05 144.05 35.20Q143.90 35.35 143.60 35.65Q142.70 36.55 141.70 36.85Q141.15 37.15 140.50 37.27Q139.85 37.40 139.45 37.55Q139.20 37.60 139 37.63Q138.80 37.65 138.60 37.65L138.20 37.65Q137.25 37.65 136.35 37.63Q135.45 37.60 134.45 37.10Q134.10 37.15 133.47 36.90Q132.85 36.65 132.65 36.40Q132.10 36.10 131.68 35.65Q131.25 35.20 130.75 34.85Q130.05 34.35 129.75 33.80Q129.45 33.25 129.20 32.65Q128.95 32.20 128.75 31.65Q128.55 31.10 128.35 30.55Q128.35 30 128.32 29.50Q128.30 29 128.30 28.50L128.30 26.65Q128.30 25.75 128.68 24.50Q129.05 23.25 129.60 22.35Q129.75 22.15 129.95 21.95Q130.10 21.75 130.32 21.55Q130.55 21.35 130.80 21.10Q130.95 21.05 131.13 20.95Q131.30 20.85 131.65 20.65Q131.80 20.55 132.03 20.30Q132.25 20.05 132.65 19.95Q133.20 19.75 133.70 19.52Q134.20 19.30 134.45 19.30Q134.80 19.30 135.72 19.35Q136.65 19.40 137.50 19.45Q137.95 19.50 138.25 19.60Q138.55 19.70 138.70 19.70Q139.10 19.75 139.38 19.80Q139.65 19.85 139.95 19.95Q140.85 20.25 141.28 20.57Q141.70 20.90 142 21.25Q142.20 21.50 142.38 21.82Q142.55 22.15 142.75 22.40Q143 22.70 143.22 23.23Q143.45 23.75 143.55 24.25Q143.65 24.65 143.70 25.30Q143.75 25.95 143.75 26.45Q143.75 26.95 143.72 27.20Q143.70 27.45 143.70 27.90M139.40 25Q139.40 24.90 139.40 24.63Q139.40 24.35 139.30 24.25Q138.90 23.60 138.18 23.48Q137.45 23.35 136.90 23.45Q136.55 23.55 136.45 23.70Q136.35 23.85 136.15 24.15Q136.05 24.25 136 24.35Q135.95 24.45 135.85 24.55Q135.75 24.65 135.72 24.82Q135.70 25 135.65 25.15Q135.55 25.40 135.55 25.50Q135.55 25.60 135.65 26Q135.85 26.10 136.43 26.17Q137 26.25 137.63 26.25Q138.25 26.25 138.82 26.17Q139.40 26.10 139.60 26Q139.65 25.95 139.53 25.73Q139.40 25.50 139.40 25ZM157.60 24Q157 24.10 156.50 24.30Q156 24.50 155.55 25.05Q154.85 25.75 154.58 26.65Q154.30 27.55 154.30 28.70L154.30 29.95Q154.55 30.45 154.65 31.05Q154.75 31.65 155.25 32.10Q155.50 32.55 155.90 33Q156.30 33.45 156.70 34Q156.95 34.15 157.35 34.23Q157.75 34.30 158 34.55Q158.65 34.80 159.50 34.83Q160.35 34.85 161.05 34.85Q161.40 34.80 161.75 34.67Q162.10 34.55 162.85 34.55Q163.10 34.45 163.25 34.73Q163.40 35 163.55 35.40Q163.70 35.65 163.85 36.02Q164 36.40 164.10 36.70Q164.20 36.90 164.33 37.08Q164.45 37.25 164.45 37.55Q164.35 37.60 164.20 37.73Q164.05 37.85 163.85 37.95Q163.75 38.20 163.40 38.27Q163.05 38.35 162.85 38.55Q161.05 39.45 159.20 39.45Q158.75 39.45 158.35 39.48Q157.95 39.50 157.35 39.45Q156.90 39.45 156.15 39.20Q155.85 39.20 155.25 39.20Q154.65 39.20 154.35 39.15Q154.10 39.10 153.88 38.95Q153.65 38.80 153.40 38.70Q153.15 38.60 152.90 38.50Q152.65 38.40 152.40 38.30Q151.85 38.05 151.43 37.52Q151 37 150.50 36.55Q150.05 36.15 149.53 35.48Q149 34.80 148.90 34.35Q148.70 33.80 148.38 33.15Q148.05 32.50 148 31.80Q147.90 31.50 147.90 31.30Q147.90 31.10 147.90 30.90L147.90 28.70Q147.90 27.55 147.97 26.63Q148.05 25.70 148.50 24.80Q148.75 24.30 148.97 23.70Q149.20 23.10 149.70 22.60Q149.70 22.35 149.90 22.13Q150.10 21.90 150.35 21.75L151.20 20.80Q151.75 20.55 152.05 20.32Q152.35 20.10 152.75 19.85Q153.45 19.60 154.10 19.43Q154.75 19.25 155.25 19.25Q156.05 19.10 156.58 18.97Q157.10 18.85 157.95 19.15Q158.40 19.20 158.88 19.27Q159.35 19.35 159.75 19.55Q160.15 19.65 160.35 19.70Q160.55 19.75 160.85 19.85Q161.35 19.95 161.83 20.20Q162.30 20.45 162.70 20.70L163.05 20.80Q163.10 20.80 163.08 21.18Q163.05 21.55 162.95 21.95Q162.85 22.20 162.85 22.48Q162.85 22.75 162.85 23.25L162.85 24.15Q162.85 24.25 162.70 24.40Q162.65 24.45 162.60 24.45Q162.35 24.45 162.15 24.38Q161.95 24.30 161.70 24.30Q161.35 24.20 160.85 24.02Q160.35 23.85 160 23.85Q159.35 23.85 158.78 23.85Q158.20 23.85 157.60 24ZM172.00 19.35Q172.35 19.25 172.85 19.05Q173.35 18.85 173.85 18.85Q174.50 18.85 175.05 18.82Q175.60 18.80 176.25 18.80Q176.75 18.80 177.23 18.82Q177.70 18.85 178.10 19Q178.20 19 178.35 19.05Q178.50 19.10 178.75 19.35Q179.25 19.50 179.70 19.85Q180.15 20.20 180.53 20.70Q180.90 21.20 181.23 21.73Q181.55 22.25 181.80 22.75Q182.05 23.15 182.13 23.80Q182.20 24.45 182.35 24.85Q182.35 25.55 182.43 26.20Q182.50 26.85 182.50 27.55Q182.50 28.70 182.45 29.75Q182.40 30.80 182.40 31.95L182.30 33.60Q182.30 33.80 182.10 34.30Q181.90 34.80 181.85 35.05Q181.70 35.55 181.45 36.23Q181.20 36.90 181.10 37Q180.85 37.25 180.75 37.45Q180.65 37.65 180.58 37.85Q180.50 38.05 180.38 38.20Q180.25 38.35 179.95 38.50Q179.70 38.60 179.35 38.83Q179.00 39.05 178.70 39.25Q178.45 39.35 178.45 39.42Q178.45 39.50 178.10 39.60L177.20 39.80Q176.60 39.90 176.23 39.85Q175.85 39.80 175.40 39.80Q174.00 39.80 172.60 39.25Q172.15 39.25 171.73 39.05Q171.30 38.85 171.10 38.60Q170.85 38.40 170.60 38.17Q170.35 37.95 170.10 37.70Q169.70 37.25 169.45 36.80Q169.20 36.35 168.95 35.85Q168.70 35.30 168.40 34.73Q168.10 34.15 168.00 33.45Q167.90 32.30 167.83 31.35Q167.75 30.40 167.75 29.45L167.75 27.40Q167.70 27.30 167.70 27Q167.70 26.70 167.75 26.60Q167.75 26.35 167.78 26.07Q167.80 25.80 167.85 25.55Q167.90 25.15 167.90 24.75Q167.90 24.35 168.15 23.95Q168.10 24.05 168.23 23.77Q168.35 23.50 168.50 23.17Q168.65 22.85 168.75 22.60Q168.85 22.35 168.85 22.40L169.20 21.75Q169.35 21.60 169.50 21.40Q169.65 21.20 169.93 20.95Q170.20 20.70 170.68 20.30Q171.15 19.90 172.00 19.35M175.65 27.65Q175.45 27.65 175.28 27.85Q175.10 28.05 175.05 28.20Q174.70 28.95 174.70 29.45Q174.70 30.80 175.65 31.25Q175.90 31.25 176.08 31.07Q176.25 30.90 176.25 30.70Q176.25 30.20 176.38 29.55Q176.50 28.90 176.25 28.20Q176.00 27.95 175.95 27.80Q175.90 27.65 175.65 27.65ZM213.05 36.90Q213.15 35.75 213.10 34.83Q213.05 33.90 213.05 33.20Q212.90 32.60 212.85 31.98Q212.80 31.35 212.70 30.80Q212.45 30.10 212.38 29.38Q212.30 28.65 212.05 27.95Q212.05 27.20 211.78 26.52Q211.50 25.85 210.80 25.35Q210.25 25.10 209.80 24.90Q209.35 24.70 208.85 24.70Q208.60 24.85 208.03 25.20Q207.45 25.55 207.20 26.10Q206.95 26.70 206.78 27.17Q206.60 27.65 206.40 27.95Q206.10 28.45 206.10 29.15Q206.10 29.85 206.05 30.40Q206.05 30.50 206.00 30.88Q205.95 31.25 205.90 31.70Q205.85 32.15 205.80 32.52Q205.75 32.90 205.75 33L205.35 35.90Q205.35 36.25 205.33 36.58Q205.30 36.90 205.30 37.25Q205.30 37.50 205.25 37.75Q205.20 38 205.20 38.25L204.90 38.25Q204.30 38.35 203.63 38.35Q202.95 38.35 202.05 38.25Q201.80 38.20 201.63 38.15Q201.45 38.10 201.45 37.60Q201.45 37 201.43 36.50Q201.40 36 201.40 35.45Q201.45 34.70 201.45 33.92Q201.45 33.15 201.30 32.25Q201.30 31.60 201.15 30.85Q201.00 30.10 200.90 29.40Q200.80 28.75 200.80 28.07Q200.80 27.40 200.55 26.85Q200.40 26.35 200.23 25.92Q200.05 25.50 199.80 25Q199.75 24.90 199.70 24.88Q199.65 24.85 199.60 24.80L199.25 24.65Q198.70 24.30 197.90 24.15L197.70 24.15L196.60 24.30Q195.60 24.45 195.00 25Q193.55 26.45 193.10 28.85Q192.80 29.30 192.75 29.77Q192.70 30.25 192.60 30.70Q192.50 31.25 192.48 31.82Q192.45 32.40 192.40 32.95Q192.40 33.35 192.28 33.75Q192.15 34.15 192.25 34.50Q192.25 34.60 192.23 34.95Q192.20 35.30 192.18 35.70Q192.15 36.10 192.13 36.45Q192.10 36.80 192.10 36.90Q192.00 37.10 192.00 37.70Q192.00 38.30 191.95 38.40Q191.70 38.40 191.38 38.48Q191.05 38.55 190.70 38.65Q190.40 38.75 190.00 38.70Q189.60 38.65 189.25 38.55Q188.50 38.40 188.15 38.40Q187.80 38.40 187.25 38.25Q187.25 37.95 187.23 37.48Q187.20 37 187.13 36.48Q187.05 35.95 187.03 35.45Q187.00 34.95 187.00 34.70Q187.00 34.55 186.98 34.17Q186.95 33.80 186.93 33.38Q186.90 32.95 186.85 32.58Q186.80 32.20 186.80 32.05Q186.75 31.55 186.75 31.15Q186.75 30.75 186.75 30.25Q186.80 29.75 186.80 29.30Q186.80 28.85 186.80 28.40L186.80 24.25Q186.80 24.10 186.83 23.48Q186.85 22.85 186.88 22.15Q186.90 21.45 186.93 20.82Q186.95 20.20 186.95 20.05Q187.20 20.05 187.60 20Q188.00 19.95 188.25 19.95Q188.75 19.95 189.18 19.93Q189.60 19.90 190.05 19.90Q190.55 19.90 190.55 19.88Q190.55 19.85 190.75 19.90Q190.90 20.35 190.88 20.47Q190.85 20.60 190.95 20.95Q191.00 21.20 191.08 21.55Q191.15 21.90 191.15 22.15L191.15 22.40Q191.60 21.95 192.05 21.67Q192.50 21.40 192.75 21.15Q193.45 20.60 194.20 20.40Q194.95 20.20 195.90 20.05L198.15 19.80L198.50 19.80Q199.25 19.95 199.85 20.13Q200.45 20.30 201.10 20.70L202.35 21.80Q202.65 22 202.75 22.15Q203.00 22.35 203.23 22.63Q203.45 22.90 203.65 23.40Q203.90 23.15 204.10 22.92Q204.30 22.70 204.55 22.45Q204.65 22.35 204.83 22.25Q205.00 22.15 205.25 22.05Q205.65 21.80 205.85 21.63Q206.05 21.45 206.45 21.25Q206.70 21.15 207.03 21.05Q207.35 20.95 207.60 20.80Q208.80 20.30 209.78 20.60Q210.75 20.90 211.70 21.15Q212.45 21.40 212.98 21.90Q213.50 22.40 214.00 23.10L214.95 25Q215.20 25.75 215.43 26.48Q215.65 27.20 215.65 27.95Q215.85 28.90 216.05 29.88Q216.25 30.85 216.25 32.05Q216.50 32.80 216.40 33.70Q216.30 34.60 216.55 35.30L216.55 37.90Q216.05 37.90 215.78 38.08Q215.50 38.25 214.95 38.25Q214.70 38.25 214.30 38.33Q213.90 38.40 213.65 38.50Q213.40 38.50 213.23 38.48Q213.05 38.45 213.05 38.25L213.05 36.90ZM225.90 33.15Q226.00 34.15 225.95 34.95Q225.90 35.75 225.80 36.45Q225.80 36.75 225.65 36.90Q225.15 37 224.50 37.08Q223.85 37.15 223.30 37.10Q222.85 37.05 222.40 37.13Q221.95 37.20 221.75 37.20Q221.75 36.90 221.70 36.65Q221.65 36.40 221.70 35.95Q221.75 35.55 221.73 35.10Q221.70 34.65 221.70 34.25L221.70 31.80Q221.65 30.65 221.65 29.45Q221.65 28.25 221.60 27.85Q221.55 27.40 221.63 26.95Q221.70 26.50 221.70 26.05Q221.65 25.35 221.68 24.63Q221.70 23.90 221.70 23.20Q221.70 22.60 221.65 21.63Q221.60 20.65 221.70 20.05Q222.10 19.95 222.70 19.95Q223.30 19.95 224.00 19.90Q224.55 19.85 225.10 19.85Q225.65 19.85 225.90 19.85Q226.00 19.85 225.98 20.13Q225.95 20.40 225.95 20.50Q225.90 21.75 225.95 22.67Q226.00 23.60 225.90 24.60Q225.95 25.60 225.93 26.32Q225.90 27.05 225.80 28.05Q225.80 28.20 225.80 28.85Q225.80 29.50 225.85 30.32Q225.90 31.15 225.90 31.93Q225.90 32.70 225.90 33.15M221.65 16.65Q221.60 16.40 221.63 15.90Q221.65 15.40 221.65 14.85Q221.65 14.60 221.63 14.40Q221.60 14.20 221.60 14Q221.60 13.90 221.63 13.85Q221.65 13.80 221.65 13.70L225.25 13.70Q225.50 13.70 225.55 13.72Q225.60 13.75 225.60 14L225.60 17.25Q225.30 17.30 224.68 17.30Q224.05 17.30 223.40 17.30Q222.75 17.30 222.23 17.27Q221.70 17.25 221.70 17.15Q221.65 17 221.65 16.65ZM230.35 23.95Q230.35 23.85 230.53 23.30Q230.70 22.75 230.75 22.70Q230.85 22.45 230.90 22.27Q230.95 22.10 231.20 21.75Q231.40 21.50 231.73 21.15Q232.05 20.80 232.15 20.65Q232.35 20.35 232.60 20.10Q232.80 19.85 233.20 19.60Q233.60 19.35 233.85 19.10Q234.55 18.90 235.08 18.70Q235.60 18.50 236.10 18.50Q237.10 18.50 238.03 18.55Q238.95 18.60 239.65 18.85Q240.40 18.85 240.90 19.02Q241.40 19.20 241.90 19.45Q242.15 19.95 242.55 20.22Q242.95 20.50 243.20 20.75L243.50 21.05Q243.85 20.80 243.83 20.50Q243.80 20.20 243.90 19.95Q244.00 19.65 244.00 19.43Q244.00 19.20 244.10 19.10Q244.25 19.05 244.45 19.07Q244.65 19.10 244.85 19.10Q245.30 19.10 246.00 19.05Q246.70 19 247.05 19.10Q247.15 19.15 247.25 19.27Q247.35 19.40 247.35 19.45L247.35 19.80Q247.35 20.10 247.38 20.57Q247.40 21.05 247.40 21.52Q247.40 22 247.38 22.45Q247.35 22.90 247.35 23.20Q247.35 23.45 247.33 24.05Q247.30 24.65 247.30 25.32Q247.30 26 247.30 26.55Q247.30 27.10 247.35 27.15Q247.35 27.65 247.30 28.25Q247.25 28.85 247.30 29.10L247.35 30.70Q247.40 31.05 247.33 31.80Q247.25 32.55 247.35 33.50Q247.40 33.85 247.38 34.52Q247.35 35.20 247.33 35.92Q247.30 36.65 247.28 37.27Q247.25 37.90 247.25 38.15Q247.25 39.10 246.93 40.08Q246.60 41.05 246.35 42Q246.10 42.50 245.85 42.95Q245.60 43.40 245.10 43.95Q244.90 44.20 244.65 44.58Q244.40 44.95 244.15 45.20Q243.90 45.55 243.28 45.98Q242.65 46.40 242.40 46.80Q242.15 47.10 241.55 47.30Q240.95 47.50 240.70 47.55L238.95 48.15Q238.50 48.40 238.03 48.58Q237.55 48.75 236.85 48.80Q236.75 48.80 236.65 48.77Q236.55 48.75 236.45 48.80Q235.95 48.80 235.63 48.92Q235.30 49.05 234.80 49.05L234.50 49.05Q233.80 49.05 233.58 49.02Q233.35 49 232.50 49.05Q232.45 49.05 232.20 49.10Q231.95 49.15 231.95 49.05Q231.95 48.10 231.88 47.30Q231.80 46.50 231.80 45.75L232.15 45.45L233.85 45.45Q234.55 45.20 235.13 45.15Q235.70 45.10 236.45 44.85Q237.15 44.40 237.73 43.95Q238.30 43.50 239.00 43.25Q239.50 42.80 239.95 42.33Q240.40 41.85 240.65 41.35Q241.10 40.90 241.23 40.40Q241.35 39.90 241.60 39.40Q241.60 38.95 241.75 38.48Q241.90 38 241.90 37.50L241.90 36.20Q241.90 35.95 241.75 36.10Q241.65 36.15 241.60 36.20Q240.90 36.65 239.95 36.73Q239.00 36.80 238.05 36.80L237.70 36.80Q237.00 36.75 236.35 36.50Q235.70 36.35 235.25 36.20Q234.80 36.05 234.25 35.75Q234.10 35.65 233.80 35.52Q233.50 35.40 232.80 35L232.20 34.30L231.10 33.10Q230.95 32.85 230.83 32.45Q230.70 32.05 230.50 31.50Q230.40 31.20 230.25 30.85Q230.10 30.50 230.00 30.10L230.00 25.90Q230.00 25.65 230.13 25.23Q230.25 24.80 230.25 24.60Q230.25 24.50 230.30 24.40Q230.30 24.30 230.33 24.20Q230.35 24.10 230.35 23.95M238.05 29.45Q238.30 29.45 238.53 29.40Q238.75 29.35 239.00 29.10Q239.10 28.90 239.08 28.67Q239.05 28.45 239.15 28.35Q239.40 27.95 239.35 27.85Q239.30 27.75 239.30 27.50Q239.30 27.25 239.13 26.88Q238.95 26.50 238.70 26.25Q238.45 26 238.35 26Q238.25 26 237.70 26.25Q237.35 26.60 237.35 27.70Q237.35 27.80 237.33 28.15Q237.30 28.50 237.40 28.80Q237.40 28.90 237.65 29.17Q237.90 29.45 238.05 29.45ZM255.70 19.35Q256.05 19.25 256.55 19.05Q257.05 18.85 257.55 18.85Q258.20 18.85 258.75 18.82Q259.30 18.80 259.95 18.80Q260.45 18.80 260.93 18.82Q261.40 18.85 261.80 19Q261.90 19 262.05 19.05Q262.20 19.10 262.45 19.35Q262.95 19.50 263.40 19.85Q263.85 20.20 264.23 20.70Q264.60 21.20 264.93 21.73Q265.25 22.25 265.50 22.75Q265.75 23.15 265.83 23.80Q265.90 24.45 266.05 24.85Q266.05 25.55 266.13 26.20Q266.20 26.85 266.20 27.55Q266.20 28.70 266.15 29.75Q266.10 30.80 266.10 31.95L266.00 33.60Q266.00 33.80 265.80 34.30Q265.60 34.80 265.55 35.05Q265.40 35.55 265.15 36.23Q264.90 36.90 264.80 37Q264.55 37.25 264.45 37.45Q264.35 37.65 264.28 37.85Q264.20 38.05 264.08 38.20Q263.95 38.35 263.65 38.50Q263.40 38.60 263.05 38.83Q262.70 39.05 262.40 39.25Q262.15 39.35 262.15 39.42Q262.15 39.50 261.80 39.60L260.90 39.80Q260.30 39.90 259.93 39.85Q259.55 39.80 259.10 39.80Q257.70 39.80 256.30 39.25Q255.85 39.25 255.43 39.05Q255.00 38.85 254.80 38.60Q254.55 38.40 254.30 38.17Q254.05 37.95 253.80 37.70Q253.40 37.25 253.15 36.80Q252.90 36.35 252.65 35.85Q252.40 35.30 252.10 34.73Q251.80 34.15 251.70 33.45Q251.60 32.30 251.53 31.35Q251.45 30.40 251.45 29.45L251.45 27.40Q251.40 27.30 251.40 27Q251.40 26.70 251.45 26.60Q251.45 26.35 251.48 26.07Q251.50 25.80 251.55 25.55Q251.60 25.15 251.60 24.75Q251.60 24.35 251.85 23.95Q251.80 24.05 251.93 23.77Q252.05 23.50 252.20 23.17Q252.35 22.85 252.45 22.60Q252.55 22.35 252.55 22.40L252.90 21.75Q253.05 21.60 253.20 21.40Q253.35 21.20 253.63 20.95Q253.90 20.70 254.38 20.30Q254.85 19.90 255.70 19.35M259.35 27.65Q259.15 27.65 258.98 27.85Q258.80 28.05 258.75 28.20Q258.40 28.95 258.40 29.45Q258.40 30.80 259.35 31.25Q259.60 31.25 259.78 31.07Q259.95 30.90 259.95 30.70Q259.95 30.20 260.08 29.55Q260.20 28.90 259.95 28.20Q259.70 27.95 259.65 27.80Q259.60 27.65 259.35 27.65Z"/></g></g></svg>
