<svg xmlns="http://www.w3.org/2000/svg" viewBox="0 0 188.305 188.305" width="188.305" height="188.305">
  <defs>
    <!-- Gradient definition from original -->
    <linearGradient id="text-gradient" x1="0%" y1="0%" x2="100%" y2="100%">
      <stop offset="0%" stop-color="rgb(245, 158, 11)" />
      <stop offset="100%" stop-color="rgb(56, 189, 248)" />
    </linearGradient>
  </defs>

  <!-- Center the original logo -->
  <g transform="translate(21.727500000000006, 59.642500000000005)" fill="url(#text-gradient)">
    <g transform="translate(0, 0)">
      <path d="M18.45 38.70L18.10 38.75Q17.85 38.80 17.78 38.77Q17.70 38.75 17.30 38.75Q17.25 38.75 17 38.80Q16.75 38.85 16.45 38.90Q16.15 38.95 15.80 38.92Q15.45 38.90 15.25 38.80Q15 38.80 14.90 38.75Q14.80 38.70 14.55 38.70Q14.30 38.50 14.28 38.10Q14.25 37.70 14.25 37.45L14.25 36.20L13.85 36.75L12.95 37.60Q12.45 37.95 12.13 38.17Q11.80 38.40 11.35 38.65Q10.60 39.10 9.73 39.25Q8.85 39.40 8.10 39.40Q7.35 39.40 6.53 39.10Q5.70 38.80 5.05 38.55Q4.85 38.50 4.68 38.38Q4.50 38.25 4.35 38.15Q4.05 37.90 3.68 37.65Q3.30 37.40 3.05 37.15Q2.90 37.05 2.78 36.92Q2.65 36.80 2.45 36.70Q2.20 36.55 2 36.20Q1.75 35.65 1.38 35.13Q1 34.60 0.75 33.90Q0.60 33.35 0.35 32.85Q0.10 32.35 0.10 31.90Q0.10 31.65 0.05 31.05Q0 30.45 0 30.20Q0 29.75 0.03 29.50Q0.05 29.25 0.05 28.75Q0.05 28.50 0.13 28.23Q0.20 27.95 0.30 27.50Q0.40 26.95 0.45 26.32Q0.50 25.70 0.60 25.30Q0.95 24.65 1.08 24.50Q1.20 24.35 1.30 23.95Q1.40 23.65 1.58 23.17Q1.75 22.70 2.10 22.45Q2.25 22.35 2.55 22.10Q2.85 21.85 3.17 21.55Q3.50 21.25 3.75 21.02Q4 20.80 4.10 20.80L5 20.40Q5.40 20.25 5.90 20.18Q6.40 20.10 6.85 20.10L8.40 20.05Q8.65 20.05 8.98 20.05Q9.30 20.05 9.40 20.10Q9.65 20.10 9.90 20.25Q10.15 20.40 10.40 20.40Q10.65 20.40 11.03 20.57Q11.40 20.75 11.65 21Q12.15 21.20 12.43 21.47Q12.70 21.75 12.95 22Q13.20 22.25 13.43 22.48Q13.65 22.70 13.90 22.95Q13.90 23.10 14.10 23.20Q14.20 23.25 14.25 23.30Q14.35 23.20 14.38 22.90Q14.40 22.60 14.55 22.35Q14.60 21.65 14.63 21.07Q14.65 20.50 14.70 20.30Q14.65 20.10 14.75 19.72Q14.85 19.35 15.10 19.45Q15.20 19.40 15.55 19.45Q15.90 19.50 16.35 19.57Q16.80 19.65 17.28 19.70Q17.75 19.75 18.10 19.75Q18.15 19.75 18.15 20Q18.15 20.25 18.10 20.40L18.40 25.20L18.40 30.60Q18.40 30.75 18.38 30.90Q18.35 31.05 18.35 31.20Q18.40 31.65 18.40 32.13Q18.40 32.60 18.40 33.10Q18.45 33.45 18.43 33.83Q18.40 34.20 18.40 34.60Q18.40 34.90 18.43 35.42Q18.45 35.95 18.45 36.50Q18.45 37.05 18.45 37.58Q18.45 38.10 18.45 38.45L18.45 38.70M12 31.15L12 31Q12 30.70 12.10 29.68Q12.20 28.65 11.65 27.15Q11.50 26.75 11.20 26.30Q10.90 25.85 10.25 25.60Q9.90 25.50 9.60 25.38Q9.30 25.25 8.95 25.30Q8.60 25.40 8.08 25.75Q7.55 26.10 7.20 26.60Q6.95 26.85 6.90 27.15Q6.85 27.45 6.80 27.85Q6.65 28.50 6.58 28.85Q6.50 29.20 6.50 29.75Q6.50 30.75 7.08 31.50Q7.65 32.25 7.80 32.50Q7.95 32.65 8.08 32.67Q8.20 32.70 8.45 32.95Q8.95 33.20 9.40 33.02Q9.85 32.85 10.40 32.60L10.70 32.60Q11.15 32.35 11.45 32.10Q11.75 31.85 12 31.35L12 31.15ZM27.05 21.10Q27.05 21 27.20 20.85Q27.25 20.80 27.35 20.80Q28.35 19.85 29.35 19.32Q30.35 18.80 31.55 18.55Q33 18 34.40 18.55Q34.95 18.55 35.25 18.72Q35.55 18.90 36.05 18.90Q37.25 19.15 38.05 19.80Q38.85 20.45 39.60 21.40Q40.55 22.65 40.95 23.90Q41.35 25.15 41.85 26.60L41.85 28.85Q41.60 29.85 41.53 30.60Q41.45 31.35 41.20 32.05Q40.95 32.80 40.48 33.48Q40 34.15 39.25 34.65Q38.20 35.70 36.70 36.25Q35.70 36.75 34.90 37.02Q34.10 37.30 33.15 37.50L27.70 37.50L27.70 38.85Q27.70 40.05 27.65 41.25Q27.60 42.45 27.35 43.70L27.35 51.55Q27.35 52.50 26.35 52.50L23.50 52.50Q23.25 50.75 23.20 49.17Q23.15 47.60 23.15 45.90L23.15 36.25Q23.05 35.05 23.05 33.98Q23.05 32.90 23.07 31.85Q23.10 30.80 23.13 29.73Q23.15 28.65 23.05 27.45L23.05 26.40Q23.05 26.05 23.10 25.60Q23.10 24.85 23.10 24.32Q23.10 23.80 23.10 23.30Q23.10 22.80 23.15 22.25Q23.20 21.70 23.30 21Q23.30 20.75 23.35 20.20Q23.40 19.65 23.30 19.30Q23.30 18.95 23.32 18.75Q23.35 18.55 23.38 18.47Q23.40 18.40 23.45 18.35Q23.50 18.30 23.55 18.20Q23.80 18.15 24.40 18.30Q25 18.45 25.45 18.50Q25.75 18.45 26.18 18.45Q26.60 18.45 27.05 18.55L27.05 21.10M35.90 27.35Q35.85 26.50 35.75 25.80Q35.65 25.10 35.40 24.35Q35.40 24.30 35.35 24.20Q35.25 24 35.10 24Q34.55 23.55 33.73 23.38Q32.90 23.20 32.20 23.70Q31.45 24.40 31 25.32Q30.55 26.25 30.55 27.25L30.55 28.85Q30.55 29.30 30.75 29.95Q30.95 30.60 31.20 31.10Q31.20 31.35 31.43 31.43Q31.65 31.50 31.90 31.75Q32.85 32 33.88 31.68Q34.90 31.35 35.40 30.15Q35.65 29.45 35.70 28.82Q35.75 28.20 35.90 27.35ZM45.20 31.10Q45.20 30.75 45.23 30.05Q45.25 29.35 45.20 28.70Q45.25 28.25 45.25 27.80Q45.25 27.35 45.25 26.85L45.10 22.80L45.10 20.55Q45.65 20.55 46.25 20.52Q46.85 20.50 47.60 20.60Q47.80 20.65 48 20.65L48.70 20.65Q49.05 20.75 49.05 20.72Q49.05 20.70 49.20 20.80Q49.20 21.05 49.15 21.18Q49.10 21.30 49.10 21.55L49.10 23.15Q49.30 22.90 49.38 22.73Q49.45 22.55 49.70 22.30L50 22.20Q50.65 21.55 51.60 21.35Q52.55 21.15 53.50 21.25Q53.70 21.25 54.15 21.43Q54.60 21.60 55.05 21.85Q55.40 21.90 55.65 22.05L55.80 22.20Q56.30 22.65 56.75 22.98Q57.20 23.30 57.40 23.80Q57.90 24.50 58.20 25.30Q58.50 26.10 58.75 27.05Q58.75 27.30 58.70 27.50Q58.65 27.70 58.40 27.70Q57.65 27.95 57.03 27.92Q56.40 27.90 55.35 28L54.80 28Q54.70 27.95 54.68 27.85Q54.65 27.75 54.65 27.70Q54.60 27.40 54.53 27.17Q54.45 26.95 54.45 26.80Q54.45 26.70 54.40 26.55Q54.35 26.40 54.30 26.30Q54.20 26.15 54.15 26.05Q53.20 25.10 52.30 25.10Q52.20 25.10 52.03 25.10Q51.85 25.10 51.70 25.20Q51.45 25.30 50.98 25.52Q50.50 25.75 50.35 25.90Q50.10 26.15 49.83 26.42Q49.55 26.70 49.40 27.05Q49.35 27.25 49.33 27.73Q49.30 28.20 49.30 28.30Q49.20 28.75 49.10 29.50Q49 30.25 49 30.80Q49 31.15 48.93 31.70Q48.85 32.25 48.85 32.70Q48.85 33.05 48.83 33.35Q48.80 33.65 48.80 33.95L48.80 35.85Q48.80 36.15 48.78 36.50Q48.75 36.85 48.75 37.20L48.75 38.30Q46.25 38.85 45.30 38.30Q45.20 37.95 45.15 37.42Q45.10 36.90 45.15 36.80Q45.25 35.90 45.20 35Q45.15 34.10 45.15 33.15Q45.10 32.65 45.15 32.10Q45.20 31.55 45.20 31.10ZM76.65 27.90Q76.65 28.15 76.40 28.40Q76.25 28.55 75.95 28.60Q75.65 28.65 75.40 28.65Q75.05 28.75 74.55 28.75Q74.05 28.75 73.70 28.75Q73 28.75 72.65 28.77Q72.30 28.80 71.50 28.90L68.50 29.15L68.50 29.75Q68.50 30.30 68.65 30.82Q68.80 31.35 69.20 31.90Q69.45 32.30 69.80 32.65Q70.15 33 70.50 33.10Q70.80 33.20 71.05 33.30Q71.30 33.40 71.53 33.48Q71.75 33.55 71.95 33.50Q73.30 33.50 73.92 33.20Q74.55 32.90 75.45 32.45Q75.65 32.45 75.88 32.25Q76.10 32.05 76.20 32Q76.45 31.90 76.92 31.50Q77.40 31.10 77.65 31Q77.80 31.10 77.75 31.68Q77.70 32.25 77.80 32.75L77.80 33.30L77.80 34.30Q77.55 34.60 77.42 34.73Q77.30 34.85 77.22 34.95Q77.15 35.05 77 35.20Q76.85 35.35 76.55 35.65Q75.65 36.55 74.65 36.85Q74.10 37.15 73.45 37.27Q72.80 37.40 72.40 37.55Q72.15 37.60 71.95 37.63Q71.75 37.65 71.55 37.65L71.15 37.65Q70.20 37.65 69.30 37.63Q68.40 37.60 67.40 37.10Q67.05 37.15 66.42 36.90Q65.80 36.65 65.60 36.40Q65.05 36.10 64.63 35.65Q64.20 35.20 63.70 34.85Q63 34.35 62.70 33.80Q62.40 33.25 62.15 32.65Q61.90 32.20 61.70 31.65Q61.50 31.10 61.30 30.55Q61.30 30 61.27 29.50Q61.25 29 61.25 28.50L61.25 26.65Q61.25 25.75 61.63 24.50Q62 23.25 62.55 22.35Q62.70 22.15 62.90 21.95Q63.05 21.75 63.27 21.55Q63.50 21.35 63.75 21.10Q63.90 21.05 64.08 20.95Q64.25 20.85 64.60 20.65Q64.75 20.55 64.97 20.30Q65.20 20.05 65.60 19.95Q66.15 19.75 66.65 19.52Q67.15 19.30 67.40 19.30Q67.75 19.30 68.67 19.35Q69.60 19.40 70.45 19.45Q70.90 19.50 71.20 19.60Q71.50 19.70 71.65 19.70Q72.05 19.75 72.33 19.80Q72.60 19.85 72.90 19.95Q73.80 20.25 74.22 20.57Q74.65 20.90 74.95 21.25Q75.15 21.50 75.33 21.82Q75.50 22.15 75.70 22.40Q75.95 22.70 76.17 23.23Q76.40 23.75 76.50 24.25Q76.60 24.65 76.65 25.30Q76.70 25.95 76.70 26.45Q76.70 26.95 76.67 27.20Q76.65 27.45 76.65 27.90M72.35 25Q72.35 24.90 72.35 24.63Q72.35 24.35 72.25 24.25Q71.85 23.60 71.13 23.48Q70.40 23.35 69.85 23.45Q69.50 23.55 69.40 23.70Q69.30 23.85 69.10 24.15Q69 24.25 68.95 24.35Q68.90 24.45 68.80 24.55Q68.70 24.65 68.67 24.82Q68.65 25 68.60 25.15Q68.50 25.40 68.50 25.50Q68.50 25.60 68.60 26Q68.80 26.10 69.38 26.17Q69.95 26.25 70.58 26.25Q71.20 26.25 71.78 26.17Q72.35 26.10 72.55 26Q72.60 25.95 72.47 25.73Q72.35 25.50 72.35 25ZM81.95 20.45Q81.95 20.30 81.90 20.15Q81.85 20 81.90 19.85Q81.95 19.85 82.07 19.82Q82.20 19.80 82.30 19.80L82.60 19.80Q82.85 19.75 83.10 19.77Q83.35 19.80 83.60 19.75L85.10 19.75Q85.20 19.75 85.30 19.85Q85.40 19.95 85.45 20L85.55 20.45Q85.55 20.60 85.60 20.80Q85.70 21.20 85.70 21.65Q85.75 21.80 85.75 21.95Q85.75 22.25 85.80 22.25Q86 22.05 86.10 21.82Q86.20 21.60 86.35 21.50Q86.50 21.35 86.57 21.30Q86.65 21.25 86.72 21.20Q86.80 21.15 86.95 21.07Q87.10 21 87.40 20.80Q87.85 20.55 88.22 20.40Q88.60 20.25 89.40 19.85Q89.55 19.80 89.92 19.70Q90.30 19.60 90.75 19.52Q91.20 19.45 91.67 19.43Q92.15 19.40 92.50 19.40Q93.05 19.45 93.40 19.52Q93.75 19.60 94.35 19.70Q94.60 19.75 95.17 19.80Q95.75 19.85 95.95 19.95Q97.20 20.65 97.95 21.15Q98.70 21.65 99.25 22.50Q99.35 22.60 99.55 22.73Q99.75 22.85 100 23.10Q100.25 23.35 100.47 23.77Q100.70 24.20 100.70 24.30Q100.90 25.15 101.15 25.67Q101.40 26.20 101.45 27.05Q101.50 27.45 101.70 27.92Q101.90 28.40 101.90 28.90Q101.90 29.40 101.95 30.02Q102 30.65 101.90 31.80Q101.90 32.15 101.92 32.45Q101.95 32.75 101.95 33.05L101.95 35.35Q101.95 35.70 101.95 36Q101.95 36.30 101.90 36.60Q101.90 37 101.92 37.30Q101.95 37.60 101.95 38Q101.95 38.10 101.95 38.23Q101.95 38.35 101.85 38.40Q101.75 38.45 101.57 38.45Q101.40 38.45 101.30 38.45Q100.85 38.45 100.45 38.48Q100.05 38.50 99.60 38.45L98.10 38.30Q97.90 38.25 97.55 38.30Q97.20 38.35 97.10 38.15Q97.05 37 97.07 36.52Q97.10 36.05 97.10 35.65Q97.10 35.40 97.05 35.02Q97 34.65 96.95 34L97.10 31.35Q97.10 30.85 97.07 30.57Q97.05 30.30 97.02 30.13Q97 29.95 96.97 29.70Q96.95 29.45 96.95 28.90Q96.95 28 96.63 27.10Q96.30 26.20 95.85 25.30Q95.60 24.80 95.20 24.40Q94.80 24 94.15 23.70Q94.05 23.65 93.90 23.60Q93.75 23.55 93.65 23.55L92.50 23.45Q91.65 23.40 90.75 23.75Q89.85 24.10 89.65 24.45Q89.30 25.05 89.10 25.35Q88.90 25.65 88.70 25.95Q88.65 26.10 88.55 26.48Q88.45 26.85 88.32 27.38Q88.20 27.90 88.10 28.48Q88 29.05 88 29.50Q88 29.85 88 30.18Q88 30.50 87.95 30.80L87.85 32.20L87.55 34.10Q87.55 34.60 87.55 35.17Q87.55 35.75 87.50 36.25L87.50 37.40Q87.20 37.60 87 37.60Q86.45 37.70 86.22 37.80Q86 37.90 85.40 37.85Q84.85 37.80 83.95 37.88Q83.05 37.95 82.50 37.85Q81.95 37.75 81.95 37.73Q81.95 37.70 81.95 37.45Q81.95 37.25 81.97 36.83Q82 36.40 82 35.92Q82 35.45 82.02 35Q82.05 34.55 82.05 34.30Q82.05 33.40 82 32.80Q81.95 32.20 81.95 31.30Q81.95 30.55 81.92 30.07Q81.90 29.60 81.85 28.85Q81.85 28.45 81.90 27.82Q81.95 27.20 81.95 26.50Q81.95 25.65 81.92 24.85Q81.90 24.05 81.90 23.65Q81.85 22.80 81.85 22.02Q81.85 21.25 81.95 20.45ZM120.50 19.95Q120.55 18.75 120.70 17.13Q120.85 15.50 121 14.30Q120.90 13.55 121 12.77Q121.10 12 121.05 11.25Q121.05 10.95 121.08 10.63Q121.10 10.30 121.10 10Q121.35 8.80 121.35 7.55Q121.35 6.30 121.60 4.80L121.60 4.20Q122.60 4.45 123.47 4.63Q124.35 4.80 125.30 4.80Q125.05 5.55 125 6.30Q124.95 7.05 124.95 7.75Q124.95 9.20 124.83 10.63Q124.70 12.05 124.70 13.50Q124.70 13.80 124.65 14.13Q124.60 14.45 124.60 14.75Q124.65 15.15 124.63 15.75Q124.60 16.35 124.60 17Q124.60 17.65 124.63 18.25Q124.65 18.85 124.75 19.25Q124.60 20.45 124.67 21.67Q124.75 22.90 124.70 24.10Q124.60 24.95 124.65 25.73Q124.70 26.50 124.70 27.35Q124.70 28.20 124.72 29.05Q124.75 29.90 124.75 30.75Q124.75 31.60 124.60 32.77Q124.45 33.95 124.50 34.80Q124.50 36 124.42 36.90Q124.35 37.80 124.35 38.80Q124.35 39.25 124.10 39.38Q123.85 39.50 123.30 39.50Q122.60 39.60 122.05 39.55Q121.50 39.50 120.80 39.50Q120.30 39.50 120.22 39.30Q120.15 39.10 120.15 38.90L120.15 38Q120.10 37.95 120.05 37.85Q120 37.75 119.95 37.73Q119.90 37.70 119.85 37.65Q119.60 37.90 119.15 38Q118.70 38.10 118.25 38.35Q117.50 38.85 116.58 39.05Q115.65 39.25 114.65 39.25Q113.95 39.25 113.42 39.23Q112.90 39.20 112.45 39Q112.20 39 112.13 38.83Q112.05 38.65 111.80 38.65Q110.80 38.15 110.05 37.63Q109.30 37.10 108.60 36.40Q107.85 35.65 107.47 34.90Q107.10 34.15 106.60 33.15Q106.40 32.45 106.33 31.73Q106.25 31 106 30.30Q106 29.30 106.08 28.38Q106.15 27.45 106.60 26.75Q106.85 25.50 107.55 24.55Q108.25 23.60 109.20 22.90Q109.70 22.40 110.38 22.10Q111.05 21.80 111.80 21.55Q112.30 21.55 112.92 21.52Q113.55 21.50 114.05 21.25Q114.75 21.25 115.33 21.27Q115.90 21.30 116.65 21.55Q116.85 21.80 117.25 21.90Q117.65 22 117.90 22.25Q118.35 22.50 118.85 22.73Q119.35 22.95 119.85 23.15Q120.10 22.95 120.10 22.52Q120.10 22.10 120.35 21.55Q120.35 21.30 120.42 20.90Q120.50 20.50 120.50 19.95M114.65 26.10Q113.70 26.60 113.22 27.63Q112.75 28.65 112.75 29.60Q112.75 30.15 112.90 30.45Q113.05 30.75 113.05 31.20Q113.05 31.95 113.50 32.45Q113.95 32.95 114.65 33.50Q115.25 34 116.30 33.50Q116.75 32.95 117.33 32.42Q117.90 31.90 117.90 30.95Q118.15 29.95 118 29.20Q117.85 28.45 117.60 27.70Q117.35 27 116.70 26.55Q116.05 26.10 115.30 26.10L114.65 26.10ZM143.70 27.90Q143.70 28.15 143.45 28.40Q143.30 28.55 143 28.60Q142.70 28.65 142.45 28.65Q142.10 28.75 141.60 28.75Q141.10 28.75 140.75 28.75Q140.05 28.75 139.70 28.77Q139.35 28.80 138.55 28.90L135.55 29.15L135.55 29.75Q135.55 30.30 135.70 30.82Q135.85 31.35 136.25 31.90Q136.50 32.30 136.85 32.65Q137.20 33 137.55 33.10Q137.85 33.20 138.10 33.30Q138.35 33.40 138.57 33.48Q138.80 33.55 139 33.50Q140.35 33.50 140.97 33.20Q141.60 32.90 142.50 32.45Q142.70 32.45 142.93 32.25Q143.15 32.05 143.25 32Q143.50 31.90 143.97 31.50Q144.45 31.10 144.70 31Q144.85 31.10 144.80 31.68Q144.75 32.25 144.85 32.75L144.85 33.30L144.85 34.30Q144.60 34.60 144.47 34.73Q144.35 34.85 144.28 34.95Q144.20 35.05 144.05 35.20Q143.90 35.35 143.60 35.65Q142.70 36.55 141.70 36.85Q141.15 37.15 140.50 37.27Q139.85 37.40 139.45 37.55Q139.20 37.60 139 37.63Q138.80 37.65 138.60 37.65L138.20 37.65Q137.25 37.65 136.35 37.63Q135.45 37.60 134.45 37.10Q134.10 37.15 133.47 36.90Q132.85 36.65 132.65 36.40Q132.10 36.10 131.68 35.65Q131.25 35.20 130.75 34.85Q130.05 34.35 129.75 33.80Q129.45 33.25 129.20 32.65Q128.95 32.20 128.75 31.65Q128.55 31.10 128.35 30.55Q128.35 30 128.32 29.50Q128.30 29 128.30 28.50L128.30 26.65Q128.30 25.75 128.68 24.50Q129.05 23.25 129.60 22.35Q129.75 22.15 129.95 21.95Q130.10 21.75 130.32 21.55Q130.55 21.35 130.80 21.10Q130.95 21.05 131.13 20.95Q131.30 20.85 131.65 20.65Q131.80 20.55 132.03 20.30Q132.25 20.05 132.65 19.95Q133.20 19.75 133.70 19.52Q134.20 19.30 134.45 19.30Q134.80 19.30 135.72 19.35Q136.65 19.40 137.50 19.45Q137.95 19.50 138.25 19.60Q138.55 19.70 138.70 19.70Q139.10 19.75 139.38 19.80Q139.65 19.85 139.95 19.95Q140.85 20.25 141.28 20.57Q141.70 20.90 142 21.25Q142.20 21.50 142.38 21.82Q142.55 22.15 142.75 22.40Q143 22.70 143.22 23.23Q143.45 23.75 143.55 24.25Q143.65 24.65 143.70 25.30Q143.75 25.95 143.75 26.45Q143.75 26.95 143.72 27.20Q143.70 27.45 143.70 27.90M139.40 25Q139.40 24.90 139.40 24.63Q139.40 24.35 139.30 24.25Q138.90 23.60 138.18 23.48Q137.45 23.35 136.90 23.45Q136.55 23.55 136.45 23.70Q136.35 23.85 136.15 24.15Q136.05 24.25 136 24.35Q135.95 24.45 135.85 24.55Q135.75 24.65 135.72 24.82Q135.70 25 135.65 25.15Q135.55 25.40 135.55 25.50Q135.55 25.60 135.65 26Q135.85 26.10 136.43 26.17Q137 26.25 137.63 26.25Q138.25 26.25 138.82 26.17Q139.40 26.10 139.60 26Q139.65 25.95 139.53 25.73Q139.40 25.50 139.40 25Z"/>
    </g>
    <g transform="translate(0, 32.5)">
      <path d="M9.70 24Q9.10 24.10 8.60 24.30Q8.10 24.50 7.65 25.05Q6.95 25.75 6.68 26.65Q6.40 27.55 6.40 28.70L6.40 29.95Q6.65 30.45 6.75 31.05Q6.85 31.65 7.35 32.10Q7.60 32.55 8 33Q8.40 33.45 8.80 34Q9.05 34.15 9.45 34.23Q9.85 34.30 10.10 34.55Q10.75 34.80 11.60 34.83Q12.45 34.85 13.15 34.85Q13.50 34.80 13.85 34.67Q14.20 34.55 14.95 34.55Q15.20 34.45 15.35 34.73Q15.50 35 15.65 35.40Q15.80 35.65 15.95 36.02Q16.10 36.40 16.20 36.70Q16.30 36.90 16.43 37.08Q16.55 37.25 16.55 37.55Q16.45 37.60 16.30 37.73Q16.15 37.85 15.95 37.95Q15.85 38.20 15.50 38.27Q15.15 38.35 14.95 38.55Q13.15 39.45 11.30 39.45Q10.85 39.45 10.45 39.48Q10.05 39.50 9.45 39.45Q9 39.45 8.25 39.20Q7.95 39.20 7.35 39.20Q6.75 39.20 6.45 39.15Q6.20 39.10 5.98 38.95Q5.75 38.80 5.50 38.70Q5.25 38.60 5 38.50Q4.75 38.40 4.50 38.30Q3.95 38.05 3.53 37.52Q3.10 37 2.60 36.55Q2.15 36.15 1.63 35.48Q1.10 34.80 1 34.35Q0.80 33.80 0.48 33.15Q0.15 32.50 0.10 31.80Q0 31.50 0 31.30Q0 31.10 0 30.90L0 28.70Q0 27.55 0.08 26.63Q0.15 25.70 0.60 24.80Q0.85 24.30 1.08 23.70Q1.30 23.10 1.80 22.60Q1.80 22.35 2 22.13Q2.20 21.90 2.45 21.75L3.30 20.80Q3.85 20.55 4.15 20.32Q4.45 20.10 4.85 19.85Q5.55 19.60 6.20 19.43Q6.85 19.25 7.35 19.25Q8.15 19.10 8.68 18.97Q9.20 18.85 10.05 19.15Q10.50 19.20 10.98 19.27Q11.45 19.35 11.85 19.55Q12.25 19.65 12.45 19.70Q12.65 19.75 12.95 19.85Q13.45 19.95 13.93 20.20Q14.40 20.45 14.80 20.70L15.15 20.80Q15.20 20.80 15.18 21.18Q15.15 21.55 15.05 21.95Q14.95 22.20 14.95 22.48Q14.95 22.75 14.95 23.25L14.95 24.15Q14.95 24.25 14.80 24.40Q14.75 24.45 14.70 24.45Q14.45 24.45 14.25 24.38Q14.05 24.30 13.80 24.30Q13.45 24.20 12.95 24.02Q12.45 23.85 12.10 23.85Q11.45 23.85 10.88 23.85Q10.30 23.85 9.70 24ZM24.10 19.35Q24.45 19.25 24.95 19.05Q25.45 18.85 25.95 18.85Q26.60 18.85 27.15 18.82Q27.70 18.80 28.35 18.80Q28.85 18.80 29.33 18.82Q29.80 18.85 30.20 19Q30.30 19 30.45 19.05Q30.60 19.10 30.85 19.35Q31.35 19.50 31.80 19.85Q32.25 20.20 32.63 20.70Q33 21.20 33.33 21.73Q33.65 22.25 33.90 22.75Q34.15 23.15 34.23 23.80Q34.30 24.45 34.45 24.85Q34.45 25.55 34.53 26.20Q34.60 26.85 34.60 27.55Q34.60 28.70 34.55 29.75Q34.50 30.80 34.50 31.95L34.40 33.60Q34.40 33.80 34.20 34.30Q34 34.80 33.95 35.05Q33.80 35.55 33.55 36.23Q33.30 36.90 33.20 37Q32.95 37.25 32.85 37.45Q32.75 37.65 32.67 37.85Q32.60 38.05 32.48 38.20Q32.35 38.35 32.05 38.50Q31.80 38.60 31.45 38.83Q31.10 39.05 30.80 39.25Q30.55 39.35 30.55 39.42Q30.55 39.50 30.20 39.60L29.30 39.80Q28.70 39.90 28.33 39.85Q27.95 39.80 27.50 39.80Q26.10 39.80 24.70 39.25Q24.25 39.25 23.83 39.05Q23.40 38.85 23.20 38.60Q22.95 38.40 22.70 38.17Q22.45 37.95 22.20 37.70Q21.80 37.25 21.55 36.80Q21.30 36.35 21.05 35.85Q20.80 35.30 20.50 34.73Q20.20 34.15 20.10 33.45Q20 32.30 19.93 31.35Q19.85 30.40 19.85 29.45L19.85 27.40Q19.80 27.30 19.80 27Q19.80 26.70 19.85 26.60Q19.85 26.35 19.88 26.07Q19.90 25.80 19.95 25.55Q20 25.15 20 24.75Q20 24.35 20.25 23.95Q20.20 24.05 20.32 23.77Q20.45 23.50 20.60 23.17Q20.75 22.85 20.85 22.60Q20.95 22.35 20.95 22.40L21.30 21.75Q21.45 21.60 21.60 21.40Q21.75 21.20 22.03 20.95Q22.30 20.70 22.78 20.30Q23.25 19.90 24.10 19.35M27.75 27.65Q27.55 27.65 27.38 27.85Q27.20 28.05 27.15 28.20Q26.80 28.95 26.80 29.45Q26.80 30.80 27.75 31.25Q28 31.25 28.18 31.07Q28.35 30.90 28.35 30.70Q28.35 30.20 28.48 29.55Q28.60 28.90 28.35 28.20Q28.10 27.95 28.05 27.80Q28 27.65 27.75 27.65ZM65.15 36.90Q65.25 35.75 65.20 34.83Q65.15 33.90 65.15 33.20Q65 32.60 64.95 31.98Q64.90 31.35 64.80 30.80Q64.55 30.10 64.47 29.38Q64.40 28.65 64.15 27.95Q64.15 27.20 63.88 26.52Q63.60 25.85 62.90 25.35Q62.35 25.10 61.90 24.90Q61.45 24.70 60.95 24.70Q60.70 24.85 60.13 25.20Q59.55 25.55 59.30 26.10Q59.05 26.70 58.88 27.17Q58.70 27.65 58.50 27.95Q58.20 28.45 58.20 29.15Q58.20 29.85 58.15 30.40Q58.15 30.50 58.10 30.88Q58.05 31.25 58 31.70Q57.95 32.15 57.90 32.52Q57.85 32.90 57.85 33L57.45 35.90Q57.45 36.25 57.43 36.58Q57.40 36.90 57.40 37.25Q57.40 37.50 57.35 37.75Q57.30 38 57.30 38.25L57 38.25Q56.40 38.35 55.73 38.35Q55.05 38.35 54.15 38.25Q53.90 38.20 53.73 38.15Q53.55 38.10 53.55 37.60Q53.55 37 53.53 36.50Q53.50 36 53.50 35.45Q53.55 34.70 53.55 33.92Q53.55 33.15 53.40 32.25Q53.40 31.60 53.25 30.85Q53.10 30.10 53 29.40Q52.90 28.75 52.90 28.07Q52.90 27.40 52.65 26.85Q52.50 26.35 52.33 25.92Q52.15 25.50 51.90 25Q51.85 24.90 51.80 24.88Q51.75 24.85 51.70 24.80L51.35 24.65Q50.80 24.30 50 24.15L49.80 24.15L48.70 24.30Q47.70 24.45 47.10 25Q45.65 26.45 45.20 28.85Q44.90 29.30 44.85 29.77Q44.80 30.25 44.70 30.70Q44.60 31.25 44.58 31.82Q44.55 32.40 44.50 32.95Q44.50 33.35 44.38 33.75Q44.25 34.15 44.35 34.50Q44.35 34.60 44.33 34.95Q44.30 35.30 44.28 35.70Q44.25 36.10 44.23 36.45Q44.20 36.80 44.20 36.90Q44.10 37.10 44.10 37.70Q44.10 38.30 44.05 38.40Q43.80 38.40 43.48 38.48Q43.15 38.55 42.80 38.65Q42.50 38.75 42.10 38.70Q41.70 38.65 41.35 38.55Q40.60 38.40 40.25 38.40Q39.90 38.40 39.35 38.25Q39.35 37.95 39.33 37.48Q39.30 37 39.23 36.48Q39.15 35.95 39.13 35.45Q39.10 34.95 39.10 34.70Q39.10 34.55 39.08 34.17Q39.05 33.80 39.02 33.38Q39 32.95 38.95 32.58Q38.90 32.20 38.90 32.05Q38.85 31.55 38.85 31.15Q38.85 30.75 38.85 30.25Q38.90 29.75 38.90 29.30Q38.90 28.85 38.90 28.40L38.90 24.25Q38.90 24.10 38.93 23.48Q38.95 22.85 38.98 22.15Q39 21.45 39.02 20.82Q39.05 20.20 39.05 20.05Q39.30 20.05 39.70 20Q40.10 19.95 40.35 19.95Q40.85 19.95 41.28 19.93Q41.70 19.90 42.15 19.90Q42.65 19.90 42.65 19.88Q42.65 19.85 42.85 19.90Q43 20.35 42.98 20.47Q42.95 20.60 43.05 20.95Q43.10 21.20 43.18 21.55Q43.25 21.90 43.25 22.15L43.25 22.40Q43.70 21.95 44.15 21.67Q44.60 21.40 44.85 21.15Q45.55 20.60 46.30 20.40Q47.05 20.20 48 20.05L50.25 19.80L50.60 19.80Q51.35 19.95 51.95 20.13Q52.55 20.30 53.20 20.70L54.45 21.80Q54.75 22 54.85 22.15Q55.10 22.35 55.33 22.63Q55.55 22.90 55.75 23.40Q56 23.15 56.20 22.92Q56.40 22.70 56.65 22.45Q56.75 22.35 56.93 22.25Q57.10 22.15 57.35 22.05Q57.75 21.80 57.95 21.63Q58.15 21.45 58.55 21.25Q58.80 21.15 59.13 21.05Q59.45 20.95 59.70 20.80Q60.90 20.30 61.88 20.60Q62.85 20.90 63.80 21.15Q64.55 21.40 65.08 21.90Q65.60 22.40 66.10 23.10L67.05 25Q67.30 25.75 67.53 26.48Q67.75 27.20 67.75 27.95Q67.95 28.90 68.15 29.88Q68.35 30.85 68.35 32.05Q68.60 32.80 68.50 33.70Q68.40 34.60 68.65 35.30L68.65 37.90Q68.15 37.90 67.88 38.08Q67.60 38.25 67.05 38.25Q66.80 38.25 66.40 38.33Q66 38.40 65.75 38.50Q65.50 38.50 65.33 38.48Q65.15 38.45 65.15 38.25L65.15 36.90ZM78 33.15Q78.10 34.15 78.05 34.95Q78 35.75 77.90 36.45Q77.90 36.75 77.75 36.90Q77.25 37 76.60 37.08Q75.95 37.15 75.40 37.10Q74.95 37.05 74.50 37.13Q74.05 37.20 73.85 37.20Q73.85 36.90 73.80 36.65Q73.75 36.40 73.80 35.95Q73.85 35.55 73.83 35.10Q73.80 34.65 73.80 34.25L73.80 31.80Q73.75 30.65 73.75 29.45Q73.75 28.25 73.70 27.85Q73.65 27.40 73.73 26.95Q73.80 26.50 73.80 26.05Q73.75 25.35 73.78 24.63Q73.80 23.90 73.80 23.20Q73.80 22.60 73.75 21.63Q73.70 20.65 73.80 20.05Q74.20 19.95 74.80 19.95Q75.40 19.95 76.10 19.90Q76.65 19.85 77.20 19.85Q77.75 19.85 78 19.85Q78.10 19.85 78.08 20.13Q78.05 20.40 78.05 20.50Q78 21.75 78.05 22.67Q78.10 23.60 78 24.60Q78.05 25.60 78.03 26.32Q78 27.05 77.90 28.05Q77.90 28.20 77.90 28.85Q77.90 29.50 77.95 30.32Q78 31.15 78 31.93Q78 32.70 78 33.15M73.75 16.65Q73.70 16.40 73.73 15.90Q73.75 15.40 73.75 14.85Q73.75 14.60 73.73 14.40Q73.70 14.20 73.70 14Q73.70 13.90 73.73 13.85Q73.75 13.80 73.75 13.70L77.35 13.70Q77.60 13.70 77.65 13.72Q77.70 13.75 77.70 14L77.70 17.25Q77.40 17.30 76.78 17.30Q76.15 17.30 75.50 17.30Q74.85 17.30 74.33 17.27Q73.80 17.25 73.80 17.15Q73.75 17 73.75 16.65ZM82.45 23.95Q82.45 23.85 82.63 23.30Q82.80 22.75 82.85 22.70Q82.95 22.45 83.00 22.27Q83.05 22.10 83.30 21.75Q83.50 21.50 83.83 21.15Q84.15 20.80 84.25 20.65Q84.45 20.35 84.70 20.10Q84.90 19.85 85.30 19.60Q85.70 19.35 85.95 19.10Q86.65 18.90 87.18 18.70Q87.70 18.50 88.20 18.50Q89.20 18.50 90.13 18.55Q91.05 18.60 91.75 18.85Q92.50 18.85 93.00 19.02Q93.50 19.20 94.00 19.45Q94.25 19.95 94.65 20.22Q95.05 20.50 95.30 20.75L95.60 21.05Q95.95 20.80 95.93 20.50Q95.90 20.20 96.00 19.95Q96.10 19.65 96.10 19.43Q96.10 19.20 96.20 19.10Q96.35 19.05 96.55 19.07Q96.75 19.10 96.95 19.10Q97.40 19.10 98.10 19.05Q98.80 19 99.15 19.10Q99.25 19.15 99.35 19.27Q99.45 19.40 99.45 19.45L99.45 19.80Q99.45 20.10 99.48 20.57Q99.50 21.05 99.50 21.52Q99.50 22 99.48 22.45Q99.45 22.90 99.45 23.20Q99.45 23.45 99.43 24.05Q99.40 24.65 99.40 25.32Q99.40 26 99.40 26.55Q99.40 27.10 99.45 27.15Q99.45 27.65 99.40 28.25Q99.35 28.85 99.40 29.10L99.45 30.70Q99.50 31.05 99.43 31.80Q99.35 32.55 99.45 33.50Q99.50 33.85 99.48 34.52Q99.45 35.20 99.43 35.92Q99.40 36.65 99.38 37.27Q99.35 37.90 99.35 38.15Q99.35 39.10 99.03 40.08Q98.70 41.05 98.45 42Q98.20 42.50 97.95 42.95Q97.70 43.40 97.20 43.95Q97.00 44.20 96.75 44.58Q96.50 44.95 96.25 45.20Q96.00 45.55 95.38 45.98Q94.75 46.40 94.50 46.80Q94.25 47.10 93.65 47.30Q93.05 47.50 92.80 47.55L91.05 48.15Q90.60 48.40 90.13 48.58Q89.65 48.75 88.95 48.80Q88.85 48.80 88.75 48.77Q88.65 48.75 88.55 48.80Q88.05 48.80 87.73 48.92Q87.40 49.05 86.90 49.05L86.60 49.05Q85.90 49.05 85.68 49.02Q85.45 49 84.60 49.05Q84.55 49.05 84.30 49.10Q84.05 49.15 84.05 49.05Q84.05 48.10 83.98 47.30Q83.90 46.50 83.90 45.75L84.25 45.45L85.95 45.45Q86.65 45.20 87.23 45.15Q87.80 45.10 88.55 44.85Q89.25 44.40 89.83 43.95Q90.40 43.50 91.10 43.25Q91.60 42.80 92.05 42.33Q92.50 41.85 92.75 41.35Q93.20 40.90 93.33 40.40Q93.45 39.90 93.70 39.40Q93.70 38.95 93.85 38.48Q94.00 38 94.00 37.50L94.00 36.20Q94.00 35.95 93.85 36.10Q93.75 36.15 93.70 36.20Q93.00 36.65 92.05 36.73Q91.10 36.80 90.15 36.80L89.80 36.80Q89.10 36.75 88.45 36.50Q87.80 36.35 87.35 36.20Q86.90 36.05 86.35 35.75Q86.20 35.65 85.90 35.52Q85.60 35.40 84.90 35L84.30 34.30L83.20 33.10Q83.05 32.85 82.93 32.45Q82.80 32.05 82.60 31.50Q82.50 31.20 82.35 30.85Q82.20 30.50 82.10 30.10L82.10 25.90Q82.10 25.65 82.23 25.23Q82.35 24.80 82.35 24.60Q82.35 24.50 82.40 24.40Q82.40 24.30 82.43 24.20Q82.45 24.10 82.45 23.95M90.15 29.45Q90.40 29.45 90.63 29.40Q90.85 29.35 91.10 29.10Q91.20 28.90 91.18 28.67Q91.15 28.45 91.25 28.35Q91.50 27.95 91.45 27.85Q91.40 27.75 91.40 27.50Q91.40 27.25 91.23 26.88Q91.05 26.50 90.80 26.25Q90.55 26 90.45 26Q90.35 26 89.80 26.25Q89.45 26.60 89.45 27.70Q89.45 27.80 89.43 28.15Q89.40 28.50 89.50 28.80Q89.50 28.90 89.75 29.17Q90.00 29.45 90.15 29.45ZM107.80 19.35Q108.15 19.25 108.65 19.05Q109.15 18.85 109.65 18.85Q110.30 18.85 110.85 18.82Q111.40 18.80 112.05 18.80Q112.55 18.80 113.03 18.82Q113.50 18.85 113.90 19Q114.00 19 114.15 19.05Q114.30 19.10 114.55 19.35Q115.05 19.50 115.50 19.85Q115.95 20.20 116.33 20.70Q116.70 21.20 117.03 21.73Q117.35 22.25 117.60 22.75Q117.85 23.15 117.93 23.80Q118.00 24.45 118.15 24.85Q118.15 25.55 118.23 26.20Q118.30 26.85 118.30 27.55Q118.30 28.70 118.25 29.75Q118.20 30.80 118.20 31.95L118.10 33.60Q118.10 33.80 117.90 34.30Q117.70 34.80 117.65 35.05Q117.50 35.55 117.25 36.23Q117.00 36.90 116.90 37Q116.65 37.25 116.55 37.45Q116.45 37.65 116.38 37.85Q116.30 38.05 116.18 38.20Q116.05 38.35 115.75 38.50Q115.50 38.60 115.15 38.83Q114.80 39.05 114.50 39.25Q114.25 39.35 114.25 39.42Q114.25 39.50 113.90 39.60L113.00 39.80Q112.40 39.90 112.03 39.85Q111.65 39.80 111.20 39.80Q109.80 39.80 108.40 39.25Q107.95 39.25 107.53 39.05Q107.10 38.85 106.90 38.60Q106.65 38.40 106.40 38.17Q106.15 37.95 105.90 37.70Q105.50 37.25 105.25 36.80Q105.00 36.35 104.75 35.85Q104.50 35.30 104.20 34.73Q103.90 34.15 103.80 33.45Q103.70 32.30 103.63 31.35Q103.55 30.40 103.55 29.45L103.55 27.40Q103.50 27.30 103.50 27Q103.50 26.70 103.55 26.60Q103.55 26.35 103.58 26.07Q103.60 25.80 103.65 25.55Q103.70 25.15 103.70 24.75Q103.70 24.35 103.95 23.95Q103.90 24.05 104.03 23.77Q104.15 23.50 104.30 23.17Q104.45 22.85 104.55 22.60Q104.65 22.35 104.65 22.40L105.00 21.75Q105.15 21.60 105.30 21.40Q105.45 21.20 105.73 20.95Q106.00 20.70 106.48 20.30Q106.95 19.90 107.80 19.35M111.45 27.65Q111.25 27.65 111.08 27.85Q110.90 28.05 110.85 28.20Q110.50 28.95 110.50 29.45Q110.50 30.80 111.45 31.25Q111.70 31.25 111.88 31.07Q112.05 30.90 112.05 30.70Q112.05 30.20 112.18 29.55Q112.30 28.90 112.05 28.20Q111.80 27.95 111.75 27.80Q111.70 27.65 111.45 27.65Z"/>
    </g>
  </g>
</svg>
